<svg width="191.224" height="72.911" viewBox="0 0 191.224 72.911" xmlns="http://www.w3.org/2000/svg">
  <g id="svgGroup" stroke-linecap="round" fill-rule="nonzero" font-size="9pt" stroke="#000000" stroke-width="0.5"
    fill="#000000" style="stroke:#000000;stroke-width:0.5;fill:#000000">
    <path
      d="M 13.117 12.223 L 12.971 26.578 A 1711.879 1711.879 0 0 0 17.036 26.489 A 417.312 417.312 0 0 0 17.878 26.468 A 51.611 51.611 0 0 0 19.819 26.395 A 3.205 3.205 0 0 1 22.566 27.24 A 1.178 1.178 0 0 1 22.749 27.897 A 1.122 1.122 0 0 1 22.236 28.922 A 7.99 7.99 0 0 1 20.057 29.343 A 41.59 41.59 0 0 1 19.526 29.398 L 17.072 29.545 Q 16.926 32.035 16.798 34.781 A 107.342 107.342 0 0 0 16.698 39.719 A 173.895 173.895 0 0 0 16.706 41.373 Q 16.706 48.075 17.127 52.341 A 128.866 128.866 0 0 0 17.933 59.021 A 64.874 64.874 0 0 0 17.988 59.373 Q 18.427 62.137 19.032 64.133 A 10.242 10.242 0 0 1 19.571 66.805 A 2.451 2.451 0 0 1 19.563 67.008 A 2.159 2.159 0 0 1 18.83 68.455 A 0.699 0.699 0 0 1 18.367 68.636 A 1.693 1.693 0 0 1 17.255 67.96 A 6.293 6.293 0 0 1 15.882 64.756 A 123.824 123.824 0 0 1 15.077 60.325 A 99.898 99.898 0 0 1 14.564 56.864 Q 14.399 55.546 14.124 50.474 A 190.74 190.74 0 0 1 13.867 44.009 A 85.483 85.483 0 0 1 13.85 42.362 L 14.033 33.976 L 14.106 29.545 L 9.016 29.618 Q 9.146 33.557 9.146 36.107 A 89.994 89.994 0 0 1 9.144 36.722 Q 9.126 39.396 8.704 44.999 A 451.258 451.258 0 0 1 8.338 49.613 A 82.595 82.595 0 0 1 8.082 52.25 A 132.351 132.351 0 0 1 7.775 54.534 A 507.862 507.862 0 0 1 7.258 58.091 A 321.333 321.333 0 0 1 6.489 63.062 A 88.609 88.609 0 0 1 6.306 64.133 Q 5.976 65.983 5.482 67.466 A 1.742 1.742 0 0 1 3.837 68.913 A 1.909 1.909 0 0 1 3.779 68.912 A 1.173 1.173 0 0 1 2.673 67.431 A 6.313 6.313 0 0 1 2.79 66.312 A 81.07 81.07 0 0 1 3.171 64.245 A 425.287 425.287 0 0 1 3.266 63.749 Q 3.669 61.661 4.109 58.97 Q 4.548 56.278 5.006 52.415 Q 5.463 48.551 5.903 43.424 Q 6.342 38.297 6.233 36.246 L 5.976 29.801 A 48.017 48.017 0 0 1 1.976 30.093 A 13.845 13.845 0 0 1 1.801 30.094 A 3.076 3.076 0 0 1 1.64 30.098 A 2.389 2.389 0 0 1 0.556 29.856 A 1.073 1.073 0 0 1 0.007 28.794 A 1.574 1.574 0 0 1 0.922 27.457 A 8.149 8.149 0 0 1 3.666 26.845 Q 5.688 26.629 9.025 26.587 A 126.923 126.923 0 0 1 10.005 26.578 L 10.078 12.296 A 13.511 13.511 0 0 0 8.119 13.853 A 7.58 7.58 0 0 0 6.709 16.196 Q 6.013 17.826 5.683 18.961 A 19.239 19.239 0 0 0 5.171 21.213 Q 4.987 22.33 4.621 23.228 A 1.108 1.108 0 0 1 3.622 24.073 A 1.059 1.059 0 0 1 3.541 24.07 A 1.224 1.224 0 0 1 2.515 23.502 A 2.407 2.407 0 0 1 2.222 22.24 A 4.26 4.26 0 0 1 2.223 22.147 Q 2.241 21.305 2.296 20.609 A 14.813 14.813 0 0 1 2.749 18.535 A 75.409 75.409 0 0 1 3.065 17.386 A 11.231 11.231 0 0 1 5.409 12.992 A 11.814 11.814 0 0 1 7.629 10.856 A 1.921 1.921 0 0 1 7.807 10.758 L 10.078 9.586 A 626.834 626.834 0 0 0 10.023 5.315 A 176.607 176.607 0 0 0 10.005 4.386 Q 9.968 2.775 10.389 2.006 A 1.334 1.334 0 0 1 11.643 1.271 A 2.057 2.057 0 0 1 11.726 1.273 Q 12.641 1.31 12.788 3.507 L 12.971 6.327 L 13.117 9.586 A 17.86 17.86 0 0 1 15.333 10.703 A 7.746 7.746 0 0 1 17.457 12.864 A 11.854 11.854 0 0 1 19.032 15.702 A 28.644 28.644 0 0 1 19.856 18.467 A 20.264 20.264 0 0 1 20.313 20.719 A 16.318 16.318 0 0 1 20.423 21.964 A 1.653 1.653 0 0 1 20.424 22.028 A 1.961 1.961 0 0 1 20.185 22.935 Q 19.929 23.429 19.27 23.484 A 1.095 1.095 0 0 1 19.179 23.488 A 1.216 1.216 0 0 1 18.153 22.806 Q 17.695 22.074 17.475 20.865 A 35.821 35.821 0 0 0 16.761 17.863 Q 16.267 16.068 15.589 14.805 Q 14.912 13.541 13.117 12.223 Z M 158.723 25.553 L 158.796 21.012 A 90.966 90.966 0 0 0 152.955 21.47 A 11.633 11.633 0 0 1 151.669 21.551 Q 150.099 21.551 149.776 20.917 A 0.722 0.722 0 0 1 149.769 20.902 A 1.482 1.482 0 0 1 149.61 20.26 A 1.394 1.394 0 0 1 150.044 19.291 Q 150.739 18.558 152.094 18.412 L 154.987 18.265 L 158.723 18.082 A 348.533 348.533 0 0 1 158.631 12.296 A 125.411 125.411 0 0 0 158.571 8.781 A 31.003 31.003 0 0 0 158.558 8.469 A 18.68 18.68 0 0 1 158.534 7.591 A 6.504 6.504 0 0 1 158.576 6.766 A 3.026 3.026 0 0 1 159.235 5.063 A 1.447 1.447 0 0 1 160.307 4.457 A 1.013 1.013 0 0 1 160.371 4.459 A 1.964 1.964 0 0 1 161.616 6.73 L 161.689 12.333 L 161.799 16.544 L 161.762 18.009 Q 168.427 17.826 169.434 18.485 A 1.622 1.622 0 0 1 170.342 19.763 A 1.061 1.061 0 0 1 170.332 19.913 A 1.585 1.585 0 0 1 168.537 21.122 A 4.336 4.336 0 0 1 168.241 21.13 A 36.042 36.042 0 0 1 166.12 21.03 A 86.378 86.378 0 0 0 161.616 20.865 A 1614.092 1614.092 0 0 1 161.643 23.163 A 136.138 136.138 0 0 1 161.652 24.198 L 161.616 29.435 A 187.725 187.725 0 0 1 166.335 27.897 A 23.721 23.721 0 0 1 168.775 27.238 A 2.11 2.11 0 0 1 169.125 27.205 Q 169.944 27.205 169.944 28.055 A 2.156 2.156 0 0 1 169.929 28.3 A 3.119 3.119 0 0 1 167.594 30.381 A 11.345 11.345 0 0 1 167.292 30.497 L 161.799 32.401 L 161.799 61.771 A 555.152 555.152 0 0 1 161.79 65.442 A 33.07 33.07 0 0 1 161.762 66.935 A 3.213 3.213 0 0 1 161.378 68.015 A 1.557 1.557 0 0 1 159.85 68.675 A 4.413 4.413 0 0 1 159.785 68.674 A 1.128 1.128 0 0 1 158.641 67.311 A 3.608 3.608 0 0 1 158.65 67.063 A 58.288 58.288 0 0 0 158.732 64.312 A 375.56 375.56 0 0 0 158.759 59.244 L 158.686 33.28 Q 157.002 33.939 155.409 34.47 A 34.21 34.21 0 0 0 152.296 35.679 A 2.425 2.425 0 0 1 151.342 35.927 A 0.88 0.88 0 0 1 150.446 35.184 A 2.754 2.754 0 0 1 150.334 34.441 A 1.651 1.651 0 0 1 150.758 33.298 A 5.041 5.041 0 0 1 153.083 32.09 A 57.875 57.875 0 0 0 155.335 31.362 A 204.206 204.206 0 0 0 158.723 30.167 A 349.706 349.706 0 0 1 158.705 27.256 Q 158.703 26.056 158.721 25.606 A 7.346 7.346 0 0 1 158.723 25.553 Z M 173.335 31.998 L 176.045 31.742 L 177.766 31.705 A 910.118 910.118 0 0 0 177.735 24.925 A 1806.388 1806.388 0 0 0 177.711 22.092 Q 177.656 16.141 177.674 14.823 A 48.384 48.384 0 0 0 177.679 14.151 A 60.096 60.096 0 0 0 177.638 11.985 A 8.866 8.866 0 0 1 177.632 11.665 A 5.565 5.565 0 0 1 178.04 9.421 Q 178.498 8.378 179.139 8.323 A 1.037 1.037 0 0 1 179.228 8.319 A 1.246 1.246 0 0 1 180.256 9 A 3.491 3.491 0 0 1 180.714 10.92 A 6.596 6.596 0 0 1 180.714 11.014 A 114.84 114.84 0 0 0 180.705 12.607 A 310.378 310.378 0 0 0 180.714 14.823 A 424.765 424.765 0 0 1 180.723 17.84 A 990.304 990.304 0 0 1 180.714 21.836 A 651.432 651.432 0 0 0 180.708 24.454 Q 180.708 26.139 180.721 26.986 A 30.312 30.312 0 0 0 180.732 27.457 L 180.805 31.815 A 438.012 438.012 0 0 1 182.49 31.705 L 185.493 31.925 A 3.535 3.535 0 0 1 187.588 32.425 A 0.396 0.396 0 0 1 187.599 32.438 A 1.778 1.778 0 0 1 187.965 33.353 A 1.656 1.656 0 0 1 187.974 33.53 A 1.194 1.194 0 0 1 187.763 34.232 A 1.397 1.397 0 0 1 186.603 34.82 A 1.777 1.777 0 0 1 186.518 34.818 Q 185.676 34.818 180.732 34.525 A 321.821 321.821 0 0 1 180.791 40.654 A 317.193 317.193 0 0 1 180.787 42.179 A 456.619 456.619 0 0 0 180.781 44.315 Q 180.781 45.602 180.794 46.001 A 1.539 1.539 0 0 0 180.805 46.171 L 180.988 49.906 A 156.462 156.462 0 0 0 182.572 49.892 A 1096.468 1096.468 0 0 0 185.566 49.851 Q 189.265 49.796 190.235 50.345 A 1.701 1.701 0 0 1 191.224 51.829 A 0.854 0.854 0 0 1 191.224 51.845 Q 191.224 52.736 189.351 52.968 A 8.439 8.439 0 0 1 189.228 52.982 A 11.242 11.242 0 0 1 188.212 53.011 Q 187.364 53.011 185.898 52.974 A 246.179 246.179 0 0 1 184.852 52.946 Q 181.135 52.836 170.551 53.312 A 8.056 8.056 0 0 1 170.163 53.322 A 1.489 1.489 0 0 1 168.244 52.305 A 3.208 3.208 0 0 1 168.243 52.2 A 1.828 1.828 0 0 1 168.94 50.638 A 2.24 2.24 0 0 1 170.039 50.254 A 65.739 65.739 0 0 1 172.291 50.141 A 403.902 403.902 0 0 1 173.628 50.089 L 178.095 49.943 A 754.457 754.457 0 0 1 177.959 42.881 A 396.069 396.069 0 0 1 177.949 42.069 A 1378.017 1378.017 0 0 1 177.921 39.551 A 162.135 162.135 0 0 1 177.912 38.297 L 177.766 34.745 A 248.657 248.657 0 0 1 174.099 34.956 Q 172.643 35.027 171.943 35.027 A 4.073 4.073 0 0 1 171.375 35.001 A 1.258 1.258 0 0 1 170.423 34.196 A 0.884 0.884 0 0 1 170.344 33.831 A 1.802 1.802 0 0 1 171.027 32.621 Q 171.54 32.108 173.335 31.998 Z M 112.287 64.371 L 112.36 68.656 A 20.908 20.908 0 0 1 112.364 69.016 A 7.448 7.448 0 0 1 112.013 71.696 Q 111.628 72.611 110.841 72.849 A 1.339 1.339 0 0 1 110.454 72.911 A 1.006 1.006 0 0 1 109.596 72.41 A 2.711 2.711 0 0 1 109.172 70.857 A 4.203 4.203 0 0 1 109.174 70.707 L 109.248 66.349 A 76.611 76.611 0 0 0 109.188 63.698 A 250.978 250.978 0 0 0 109.01 59.775 A 42.325 42.325 0 0 0 108.215 53.1 A 21.225 21.225 0 0 0 108.039 52.36 L 107.636 50.785 Q 101.777 51.81 99.635 48.386 A 15.343 15.343 0 0 1 97.817 44.695 Q 97.614 43.968 97.675 43.461 Q 97.712 42.838 98.023 42.527 A 1.249 1.249 0 0 1 98.902 42.197 A 2.053 2.053 0 0 1 98.968 42.196 A 1.496 1.496 0 0 1 99.873 42.472 A 3.841 3.841 0 0 1 100.605 43.9 A 10.115 10.115 0 0 0 101.576 45.933 Q 102.143 46.83 104.084 47.489 Q 105.439 47.965 106.941 47.562 Q 106.757 46.83 106.519 46.079 A 21.5 21.5 0 0 0 105.534 43.851 A 111.277 111.277 0 0 0 104.926 42.618 A 20.568 20.568 0 0 0 102.271 38.407 A 40.756 40.756 0 0 0 100.092 36.045 A 3.476 3.476 0 0 1 99.14 34.836 A 1.449 1.449 0 0 1 99.111 34.538 A 2.349 2.349 0 0 1 99.177 34.012 Q 99.433 32.841 100.788 33.06 A 5.545 5.545 0 0 1 103.682 35.325 A 16.971 16.971 0 0 1 104.139 35.935 A 53.903 53.903 0 0 1 107.417 41.08 Q 108.845 43.644 109.248 45.365 L 109.504 46.5 Q 111.408 44.962 111.482 42.087 A 7.196 7.196 0 0 0 111.484 41.904 Q 111.484 39.098 109.321 35.587 A 13.202 13.202 0 0 0 106.995 32.822 Q 105.732 31.705 105.531 31.229 A 1.783 1.783 0 0 1 105.4 30.529 A 2.836 2.836 0 0 1 105.439 30.076 A 1.082 1.082 0 0 1 106.281 29.178 A 1.868 1.868 0 0 1 106.821 29.101 A 2.764 2.764 0 0 1 107.929 29.362 Q 108.881 29.838 110.2 31.156 Q 111.518 32.474 112.708 34.763 A 14.908 14.908 0 0 1 114.246 39.084 Q 114.594 41.117 114.521 42.545 A 8.872 8.872 0 0 1 113.514 46.427 Q 112.653 47.928 110.42 49.796 A 338.37 338.37 0 0 0 111.134 53.092 A 44.623 44.623 0 0 1 111.843 58.014 A 96.512 96.512 0 0 1 111.884 58.439 A 91.85 91.85 0 0 1 112.287 64.371 Z M 83.43 59.391 L 83.32 65.397 Q 83.21 67.85 83.357 69.315 A 7.667 7.667 0 0 1 83.397 70.076 A 3.733 3.733 0 0 1 83.119 71.622 A 1.324 1.324 0 0 1 82.02 72.52 A 0.857 0.857 0 0 1 81.954 72.522 A 1.647 1.647 0 0 1 80.683 71.439 A 3.325 3.325 0 0 1 80.205 69.676 A 4.081 4.081 0 0 1 80.207 69.535 Q 80.232 68.827 80.232 66.638 A 624.1 624.1 0 0 0 80.225 64.078 A 68.526 68.526 0 0 1 80.225 63.793 Q 80.225 60.557 80.524 56.279 A 183.911 183.911 0 0 1 80.756 53.312 A 26.413 26.413 0 0 1 81.013 50.931 L 81.269 49.54 A 12.895 12.895 0 0 1 77.9 46.171 Q 76.838 44.486 76.838 42.289 A 12.876 12.876 0 0 1 77.387 38.37 Q 78.706 34.269 82.295 31.815 A 15.745 15.745 0 0 1 85.029 30.232 Q 86.146 29.781 86.433 30.24 A 2.577 2.577 0 0 1 86.917 31.449 A 0.666 0.666 0 0 1 86.909 31.559 A 2.26 2.26 0 0 1 86.25 32.584 L 82.99 35.074 A 8.353 8.353 0 0 0 80.39 38.004 Q 79.768 39.396 79.749 40.952 A 10.518 10.518 0 0 0 79.749 41.076 A 6.532 6.532 0 0 0 80.171 43.571 A 6.561 6.561 0 0 0 82.221 46.171 Q 82.551 44.889 83.1 43.149 Q 83.65 41.41 84.712 39.799 A 45.477 45.477 0 0 1 87.067 36.64 A 115.404 115.404 0 0 1 88.191 35.258 Q 90.608 32.328 91.651 33.079 A 2.064 2.064 0 0 1 92.713 34.47 A 2.611 2.611 0 0 1 92.714 34.545 A 1.606 1.606 0 0 1 92.439 35.514 A 4.619 4.619 0 0 1 91.541 36.393 Q 90.827 36.979 89.472 38.48 Q 88.117 39.982 87 41.648 A 18.567 18.567 0 0 0 85.068 46.01 A 44.107 44.107 0 0 0 84.785 46.903 A 4.02 4.02 0 0 0 86.49 47.268 A 5.581 5.581 0 0 0 88.044 47.031 A 5.954 5.954 0 0 0 90.772 45.548 A 20.786 20.786 0 0 0 92.732 43.04 A 1.877 1.877 0 0 1 94.005 42.006 A 0.742 0.742 0 0 1 94.544 42.27 Q 95.295 43.058 95.35 43.772 A 1.619 1.619 0 0 1 95.355 43.896 A 3.042 3.042 0 0 1 94.819 45.438 A 13.645 13.645 0 0 1 93.195 47.23 A 56.38 56.38 0 0 1 92.274 48.112 Q 90.241 50.016 87.641 50.529 A 5.648 5.648 0 0 1 86.427 50.658 A 7.302 7.302 0 0 1 84.382 50.345 A 85.486 85.486 0 0 0 83.778 53.824 Q 83.503 55.619 83.43 59.391 Z M 26.447 22.404 L 37.507 22.147 A 56.139 56.139 0 0 1 37.425 19.449 A 19.825 19.825 0 0 1 37.434 18.815 L 37.47 12.882 L 37.287 9.293 A 2.481 2.481 0 0 1 37.283 9.147 A 2.37 2.37 0 0 1 37.525 8.103 A 1.017 1.017 0 0 1 38.532 7.535 A 1.374 1.374 0 0 1 39.796 8.927 Q 40.034 10.282 40.144 12.04 L 40.437 22.294 Q 40.73 31.156 40.73 32.218 Q 40.693 35.221 40.308 38.059 Q 39.924 40.897 38.294 42.801 Q 36.695 44.67 32.682 44.67 A 17.55 17.55 0 0 1 32.526 44.669 A 10.864 10.864 0 0 1 27.456 43.714 A 4.456 4.456 0 0 1 26.722 43.223 Q 24.983 41.776 24.323 39.908 Q 23.664 38.041 23.554 34.891 L 23.518 20.646 Q 23.481 14.31 23.628 12.479 A 21.256 21.256 0 0 1 23.866 10.227 A 1.398 1.398 0 0 1 25.349 8.872 A 1.669 1.669 0 0 1 25.373 8.872 A 1.547 1.547 0 0 1 26.704 10.795 A 49.145 49.145 0 0 1 26.611 12.961 A 254.724 254.724 0 0 1 26.539 14.182 A 68.785 68.785 0 0 0 26.404 18.378 A 56.944 56.944 0 0 0 26.411 19.254 L 26.447 22.404 Z M 37.507 24.857 L 26.447 25.113 A 609.707 609.707 0 0 0 26.539 30.863 A 87.235 87.235 0 0 0 26.777 35.807 A 10.042 10.042 0 0 0 27.912 39.89 A 4.083 4.083 0 0 0 31.67 41.553 Q 31.864 41.559 32.066 41.559 A 13.163 13.163 0 0 0 32.343 41.556 A 5.437 5.437 0 0 0 35.782 40.752 A 1.874 1.874 0 0 0 35.804 40.732 A 5.075 5.075 0 0 0 37.177 38.004 Q 37.617 36.1 37.69 33.573 L 37.58 28.739 L 37.507 24.857 Z M 98.005 8.964 L 93.244 9.147 Q 93.317 9.696 93.446 10.227 Q 93.574 10.758 94.013 11.161 A 3.176 3.176 0 0 0 95.625 11.747 L 97.859 12.04 Q 99.47 12.333 100.312 13.01 A 4.177 4.177 0 0 1 101.594 14.933 A 8.882 8.882 0 0 1 102.107 17.313 A 3.96 3.96 0 0 1 102.115 17.568 A 5.666 5.666 0 0 1 101.594 19.803 A 7.001 7.001 0 0 1 100.276 21.781 L 97.932 23.868 A 7.552 7.552 0 0 0 96.668 25.956 A 7.178 7.178 0 0 0 96.294 28.635 A 25.515 25.515 0 0 0 96.394 30.753 A 69.694 69.694 0 0 1 96.649 34.942 Q 96.658 35.39 96.65 35.734 A 1.991 1.991 0 0 1 95.551 37.894 Q 94.563 38.114 93.903 37.052 A 3.404 3.404 0 0 1 93.574 35.258 L 93.391 30.277 A 16.672 16.672 0 0 1 94.05 25.406 A 8.979 8.979 0 0 1 95.954 21.891 L 98.115 19.913 A 3.892 3.892 0 0 0 99.434 17.273 A 2.501 2.501 0 0 0 99.433 17.203 A 2.393 2.393 0 0 0 98.737 15.555 Q 98.115 14.969 97.822 14.86 A 7.176 7.176 0 0 0 96.792 14.709 A 112.941 112.941 0 0 0 94.288 14.475 A 3.734 3.734 0 0 1 90.534 11.106 A 27.532 27.532 0 0 1 90.112 6.692 A 14.629 14.629 0 0 1 90.131 5.924 A 29.978 29.978 0 0 1 90.479 2.445 A 3.442 3.442 0 0 1 91.322 0.303 Q 91.889 -0.118 92.622 0.046 Q 93.354 0.211 93.574 0.614 A 0.668 0.668 0 0 1 93.617 0.88 A 4.547 4.547 0 0 1 93.372 2.079 A 8.273 8.273 0 0 0 93.058 4.493 A 12.731 12.731 0 0 0 93.061 4.789 L 93.061 6.254 A 262.988 262.988 0 0 1 97.422 6.042 Q 99.248 5.972 100.364 5.972 A 18.502 18.502 0 0 1 101.447 5.997 Q 103.059 6.107 103.15 7.242 A 2.405 2.405 0 0 1 103.158 7.436 A 1.279 1.279 0 0 1 102.29 8.744 Q 101.923 8.89 98.005 8.964 Z M 80.354 15.958 L 80.5 18.339 Q 81.635 18.009 83.851 17.368 A 94.188 94.188 0 0 0 87.165 16.361 A 3.753 3.753 0 0 1 88.302 16.132 A 1.121 1.121 0 0 1 88.758 16.215 Q 89.253 16.434 89.381 16.837 A 0.515 0.515 0 0 1 89.403 16.994 A 2.432 2.432 0 0 1 88.905 18.155 A 4.758 4.758 0 0 1 86.295 19.531 A 19.05 19.05 0 0 1 85.462 19.749 A 19.759 19.759 0 0 1 81.082 20.391 A 8.438 8.438 0 0 1 80.903 20.389 Q 81.306 22.001 81.8 22.989 A 5.593 5.593 0 0 0 83.576 24.912 A 5.459 5.459 0 0 0 86.872 25.846 A 2.243 2.243 0 0 0 87.003 25.849 A 17.093 17.093 0 0 0 89.472 25.535 A 5.988 5.988 0 0 1 90.49 25.431 A 1.009 1.009 0 0 1 91.651 26.011 A 2.473 2.473 0 0 1 91.728 26.596 A 1.501 1.501 0 0 1 91.523 27.384 A 4.022 4.022 0 0 1 88.126 28.838 Q 87.481 28.878 86.726 28.849 A 11.849 11.849 0 0 1 82.02 27.769 A 6.449 6.449 0 0 1 78.687 23.429 Q 77.68 20.133 77.589 16.526 A 55.868 55.868 0 0 1 77.57 15.109 A 42.214 42.214 0 0 1 77.863 9.952 A 88.638 88.638 0 0 1 78.266 6.913 Q 78.559 4.899 78.98 3.855 Q 79.401 2.811 80.317 2.958 A 1.195 1.195 0 0 1 81.397 3.617 A 2.264 2.264 0 0 1 81.496 4.311 A 3.723 3.723 0 0 1 81.452 4.862 L 81.123 6.84 L 80.683 9.22 L 80.5 11.014 A 13.801 13.801 0 0 0 84.528 10.135 A 8.79 8.79 0 0 1 87.442 9.421 A 3.033 3.033 0 0 1 87.495 9.421 A 0.831 0.831 0 0 1 88.488 10.273 A 1.552 1.552 0 0 1 88.484 10.392 A 2.829 2.829 0 0 1 86.89 12.296 A 9.859 9.859 0 0 1 83.453 13.309 A 39.996 39.996 0 0 1 80.5 13.651 A 28.914 28.914 0 0 0 80.348 15.792 A 1.756 1.756 0 0 0 80.354 15.958 Z M 102.766 24.271 L 104.121 24.857 A 5.738 5.738 0 0 0 106.208 25.283 A 4.45 4.45 0 0 0 106.941 25.223 Q 108.222 25.04 109.376 23.978 Q 110.529 22.916 110.713 21.232 L 110.896 19.913 A 21.526 21.526 0 0 1 109.522 20.005 A 7.034 7.034 0 0 1 109.31 20.008 A 15.942 15.942 0 0 1 107.911 19.932 A 14.416 14.416 0 0 1 105.732 19.547 A 5.109 5.109 0 0 1 103.883 18.741 A 2.219 2.219 0 0 1 103.022 17.496 A 1.503 1.503 0 0 1 102.974 17.132 A 0.978 0.978 0 0 1 103.352 16.343 A 1.298 1.298 0 0 1 104.132 15.984 A 0.623 0.623 0 0 1 104.249 15.995 Q 104.633 16.068 106.135 16.746 Q 107.636 17.423 111.225 17.093 A 30.069 30.069 0 0 0 111.372 15.372 L 111.298 13.102 A 12.291 12.291 0 0 1 110.86 13.109 A 19.109 19.109 0 0 1 106.574 12.552 A 8.514 8.514 0 0 1 103.732 11.525 A 1.103 1.103 0 0 1 103.462 11.252 A 1.554 1.554 0 0 1 103.21 10.388 A 2.347 2.347 0 0 1 103.352 9.623 A 0.875 0.875 0 0 1 104.291 9.06 A 4.127 4.127 0 0 1 105.586 9.33 L 107.05 9.916 Q 108.698 10.575 111.298 10.612 Q 111.225 9.55 111.152 8.249 Q 111.079 6.949 110.786 5.796 Q 110.493 4.642 110.438 4.166 A 1.366 1.366 0 0 1 110.429 4.01 A 1.258 1.258 0 0 1 110.658 3.287 Q 110.932 2.884 111.536 2.848 Q 112.141 2.811 112.544 3.068 A 4.491 4.491 0 0 1 113.467 5.124 A 24.091 24.091 0 0 1 113.77 6.382 A 22.808 22.808 0 0 1 114.168 10.292 Q 114.195 11.104 114.195 12.022 A 84.213 84.213 0 0 1 114.118 15.446 A 110.092 110.092 0 0 1 113.642 21.25 A 6.912 6.912 0 0 1 111.17 26.359 Q 109.065 27.933 106.098 28.08 A 13.075 13.075 0 0 1 105.454 28.096 A 4.491 4.491 0 0 1 102.07 27.073 A 3.754 3.754 0 0 1 100.953 24.711 A 1.486 1.486 0 0 1 100.951 24.643 Q 100.951 23.524 102.766 24.271 Z M 96.577 19.217 Q 95.734 19.181 94.819 19.163 A 6.611 6.611 0 0 0 94.687 19.161 A 10.181 10.181 0 0 0 92.713 19.382 A 8.783 8.783 0 0 1 91.104 19.589 A 2.684 2.684 0 0 1 90.937 19.584 Q 90.351 19.547 90.022 19.089 Q 89.692 18.632 89.875 18.009 A 2.377 2.377 0 0 1 90.974 16.892 A 5.802 5.802 0 0 1 93.795 16.355 Q 93.93 16.353 94.07 16.353 A 20.948 20.948 0 0 1 94.636 16.361 A 12.421 12.421 0 0 1 97.626 16.756 A 1.146 1.146 0 0 1 98.023 16.965 Q 98.518 17.423 98.335 18.394 Q 98.151 19.364 96.577 19.217 Z" />
  </g>
</svg>
