<svg xmlns="http://www.w3.org/2000/svg" width="320" height="320" aria-labelledby="title desc"><circle cx="120" cy="160" r="116" fill="#14b8a6" fill-opacity=".95"/><circle cx="200" cy="160" r="116" fill="#6366f1" fill-opacity=".95"/><circle cx="160.4" cy="160" r="78" fill="#020617" fill-opacity=".92"/><g stroke-linecap="round" fill-rule="evenodd" font-size="12" stroke="#e5e7eb" stroke-width=".05mm" fill="#e5e7eb"><path d="M131.704 127.124l1.904-1.905a48.438 48.438 0 015.572 7.251 103.61 103.61 0 011.752 2.784 28.393 28.393 0 012.975 6.135q.404 1.323.404 2.331a3.831 3.831 0 01-.155 1.128 32.985 32.985 0 01-10.987 7.179l7.178 5.785q2.856 1.392 5.53 2.528 2.672 1.134 5.456 3.186-2.14.621-6.652-1.002a37.22 37.22 0 01-.563-.207q-4.944-1.868-7.141.256l-.951 10.034-2.052-3.369a31.689 31.689 0 00.13-2.633 8.104 8.104 0 00-.202-2.09q-.298-1.045-5.352-1.045a66.405 66.405 0 00-2.559.056l.147 8.641-2.124 2.345 18.677-.44 1.465-1.905q1.83.88 1.904 8.753.073 7.873-1.464 13.221a215.303 215.303 0 01-1.464-9.342q-.837-6.438-.458-8.729a5.448 5.448 0 01.016-.094l-11.498 2.418a69.498 69.498 0 00-.821 10.194 126.933 126.933 0 00-.023 1.78 12.359 12.359 0 01-1.117 5.963 2.856 2.856 0 01-2.361 1.545l.073-19.043h-7.177a124.27 124.27 0 00-.015 1.911 131.734 131.734 0 00.234 7.793 13.11 13.11 0 01.024.777 16.021 16.021 0 01-3.173 9.148V176.49a36.522 36.522 0 005.366-1.722q1.543-.695 1.543-1.251a.404.404 0 00-.024-.14 16.94 16.94 0 01-.495-2.829 172.67 172.67 0 01-.604-6.07q-5.712-.879-6.848.111a1.183 1.183 0 01-.789.321 2.877 2.877 0 01-1.957-1.383l10.546-10.035-7.177-.953a12.114 12.114 0 01-3.699-8.458 95.475 95.475 0 01-.198-5.885 61.119 61.119 0 01.088-3.38l1.391-.514 1.1 2.93a38.913 38.913 0 005.273 5.61 14.148 14.148 0 00.806.616 69.456 69.456 0 002.791-8.418 17.13 17.13 0 00.578-3.886l1.464-.66 7.177 12.012 1.905-9.156-3.369-6.225zm-5.274 11.499l-3.808 11.499a22.319 22.319 0 009.595-2.417l-5.787-9.082zm2.417 14.868l-6.225 4.761.44 1.905a70.261 70.261 0 005.081.163 107.36 107.36 0 001.95-.018 7.255 7.255 0 004.673-1.173 1.989 1.989 0 00.308-.364l-6.227-5.274zm6.226-6.225l7.178-4.322-3.809-6.224a67.878 67.878 0 01-3.003 5.529 5.458 5.458 0 00-.873 2.856 5.034 5.034 0 00.507 2.161zm-19.189-4.322l.292 5.201 3.59 1.537a20.59 20.59 0 00.624-3.215v-.046a1.22 1.22 0 00-.002-.071 2.897 2.897 0 00-1.144-1.163 48.111 48.111 0 00-3.36-2.243zM201.695 125.587l1.026-.295 1.098 6.373 1.537.073q4.029 1.905 3.809 4.248a10.617 10.617 0 01-4.365 2.323 33.599 33.599 0 01-.981.314 49.761 49.761 0 00-1.977 7.617l5.859-1.172 5.566-1.171.659.585-10.694 10.693.147 3.224a72.68 72.68 0 012.187 13.39 130.603 130.603 0 01.377 7.484l-1.098 6.372a20.868 20.868 0 013.222 7.543l-1.026.513-2.124-3.15-.585-.073-4.248 8.056-.147-1.024 2.124-7.838-.366-.219-4.835 3.735v-1.098a25.167 25.167 0 005.274-7.25 25.197 25.197 0 001.652-8.549 50.511 50.511 0 00.033-.755l-1.098-.585-4.835 4.833.587-2.124a32.843 32.843 0 003.697-4.284 4.761 4.761 0 00.85-2.794 7.394 7.394 0 00-.3-2.003l-1.025-1.099-4.761 4.687-1.685.66q4.908-5.64 6.006-9.009l-.073-2.784a26.909 26.909 0 01-4.541 5.678 17.517 17.517 0 01-5.64 3.478q5.714-5.64 9.741-11.646v-2.343l-3.295 1.246-8.643.073-1.025.366.732 4.028-.22 5.566-1.611 8.57q4.029 4.174 4.212 9.265a14.89 14.89 0 01.009.536 16.806 16.806 0 01-3.122 9.462l-1.612.513q-3.341-8.561-4.035-9.88a2.769 2.769 0 00-.066-.118 2.056 2.056 0 01-.134-.918q0-1.166.381-3.655a146.17 146.17 0 011.145-6.303l-3.15-6.885-.585-5.933a46.951 46.951 0 012.02-7.218 17.238 17.238 0 01.213-.51 16.572 16.572 0 00.842-4.626q.274-3.237.292-8.407a210.462 210.462 0 00.002-.7 16.209 16.209 0 01-6.153-3.368l-.366-1.319.439-.513a13.976 13.976 0 003.318-.921 82.587 82.587 0 003.42-1.348V129.1l1.538.44.294 3.297a57.867 57.867 0 00.903.006q3.175 0 4.51-.392a2.804 2.804 0 00.519-.201l-.073-2.416.439-1.54 1.466 1.685.292 2.345a33.975 33.975 0 016.45-.73 17.763 17.763 0 011.607.07v-6.078zm-15.528 20.608a120.157 120.157 0 00-.146-5.595 20.13 20.13 0 004.028.404 22.372 22.372 0 004.174-.404 255.003 255.003 0 011.191 2.655 1211.748 1211.748 0 011.959 4.45 13.861 13.861 0 00-2.65.82 28.026 28.026 0 00-8.556 6.137 3.075 3.075 0 01-.263-1.699 31.996 31.996 0 01.117-2.438 55.684 55.684 0 00.146-4.33zm-2.125 10.591a12.993 12.993 0 00-1.837 6.32 9.767 9.767 0 00.043.931 15.462 15.462 0 002.308 6.666 17.552 17.552 0 001.391-6.922 15.476 15.476 0 00.004-.284 11.922 11.922 0 00-1.909-6.71zm14.43-6.372h-1.612a15.186 15.186 0 00-6.445 4.249 46.431 46.431 0 005.127.293 5.692 5.692 0 003.955-1.318 4.435 4.435 0 00.004-.201 5.334 5.334 0 00-1.028-3.022zm-12.306 39.04l1.1-.587a18.27 18.27 0 00.25-2.917 12.95 12.95 0 00-.14-1.953q-.33-2.16-2.308-4.212a16.337 16.337 0 00-.75 4.398 7.235 7.235 0 00.055.912 10.54 10.54 0 001.794 4.359zm19.776-42.261l-4.834 2.124 1.1 3.222 5.859-4.248-2.125-1.098zm-13.403-12.305l-6.372 1.025v2.197l6.152-.073.806-1.025-.586-2.124zm2.563-.513l.66 3.222 5.346-1.611.513-2.124a287.543 287.543 0 00-5.274-.073l-1.245.586zm5.348 4.761l-3.735.879 2.269 5.054.953-1.611q.879-2.49 1.209-3.59a1.614 1.614 0 00.079-.447q0-.562-.775-.285zm-19.116-2.124l.585 1.098 2.124-.513-1.611-1.611-1.098 1.026zm25.34-2.784l-2.342.147.145 1.026 2.052.072.145-1.245z" stroke-width=".07500000000000001mm"/></g></svg>