<svg xmlns="http://www.w3.org/2000/svg" width="320" height="320" viewBox="0 0 320 320" aria-labelledby="title desc">
  <title>知与在 · Being and Knowing</title>
  <desc>Minimal flat logo for the theme "知与在 / Being and Knowing".</desc>

  <!-- 边框：给整个 320x320 画布加一个边框 -->
  <!-- <rect x="0.5" y="0.5" width="319" height="319" fill="none" stroke="#020617" stroke-width="1" rx="12" ry="12" /> -->
  <!-- 左：存在 / Being（略偏青绿色，更柔和） -->
  <circle cx="120" cy="160" r="116" fill="#14b8a6" fill-opacity=".95" />
  <!-- 右：知 / Knowing（偏紫蓝，和左边形成对称感） -->
  <circle cx="200" cy="160" r="116" fill="#6366f1" fill-opacity=".95" />

  <!-- 中心：交叠区域，略小一点，让文字更舒展 -->
  <circle cx="160" cy="160" r="78" fill="#020617" fill-opacity=".92" />
  <!-- <circle cx="160" cy="160" r="160" fill="#db720f" fill-opacity=".92" /> -->
  <!-- 标题：知与在 -->
  <!-- <text x="160" y="160" fill="#e5e7eb" stroke="#000000" stroke-width="0.8" stroke-opacity=".35"
    font-family="system-ui, -apple-system, BlinkMacSystemFont, 'Segoe UI', 'Noto Sans SC', sans-serif" font-size="22"
    font-weight="600" paint-order="stroke fill" text-anchor="middle">
    知与在
  </text> -->


  <!-- 副标题：BEING AND KNOWING -->
  <!-- <text x="160" y="185" fill="#e5e7eb" stroke="#e5e7eb" stroke-width="0.6" stroke-opacity=".35"
    font-family="system-ui, -apple-system, BlinkMacSystemFont, 'Segoe UI', sans-serif" font-size="10"
    letter-spacing="2.5" paint-order="stroke fill" text-anchor="middle">
    Knowing&amp;Being
  </text> -->

  <svg transform="translate(80, 140)" width="156" height="60" viewBox="0 0 50 30" xmlns="http://www.w3.org/2000/svg">
    <g id="svgGroup" stroke-linecap="round" fill-rule="evenodd" font-size="9pt" stroke="#e5e7eb" stroke-width="0.15mm"
      fill="#e5e7eb" style="stroke:#e5e7eb;stroke-width:0.15mm;fill:#e5e7eb">
      <path
        d="M 5.121 0.566 L 5.629 0.059 Q 6.488 0.938 7.582 2.734 A 4.992 4.992 0 0 1 8.483 4.992 A 1.022 1.022 0 0 1 8.441 5.293 A 8.796 8.796 0 0 1 5.512 7.207 L 7.426 8.75 Q 8.188 9.121 8.9 9.424 Q 9.613 9.727 10.355 10.273 Q 9.75 10.449 8.432 9.951 A 3.111 3.111 0 0 0 7.358 9.718 A 1.145 1.145 0 0 0 6.527 10.02 L 6.273 12.695 L 5.727 11.797 A 8.451 8.451 0 0 0 5.761 11.095 A 2.161 2.161 0 0 0 5.707 10.537 A 1.552 1.552 0 0 0 4.443 10.26 Q 4.364 10.259 4.28 10.259 A 17.708 17.708 0 0 0 3.598 10.273 L 3.637 12.578 L 3.07 13.203 L 8.051 13.086 L 8.441 12.578 A 2.348 2.348 0 0 1 8.937 14.416 A 15.283 15.283 0 0 1 8.949 14.912 A 20.375 20.375 0 0 1 8.95 15.102 A 12.224 12.224 0 0 1 8.559 18.437 Q 8.015 15.346 8.015 14.108 A 2.955 2.955 0 0 1 8.051 13.594 L 4.984 14.238 A 20.041 20.041 0 0 0 4.76 17.432 Q 4.75 19.375 3.833 19.434 L 3.852 14.355 L 1.938 14.355 A 33.141 33.141 0 0 0 1.934 14.865 A 35.129 35.129 0 0 0 1.996 16.943 A 3.496 3.496 0 0 1 2.002 17.15 A 4.273 4.273 0 0 1 1.156 19.59 L 1.156 13.73 A 4.688 4.688 0 0 0 2.952 13.042 Q 2.999 12.988 2.999 12.937 A 0.108 0.108 0 0 0 2.992 12.9 A 12.361 12.361 0 0 1 2.742 11.013 A 80.725 80.725 0 0 1 2.699 10.527 Q 1.176 10.293 0.873 10.557 A 0.315 0.315 0 0 1 0.663 10.642 A 0.767 0.767 0 0 1 0.141 10.273 L 2.953 7.598 L 1.039 7.344 Q 0.141 6.504 0.053 5.088 A 25.46 25.46 0 0 1 0 3.519 A 16.298 16.298 0 0 1 0.023 2.617 L 0.395 2.48 L 0.688 3.262 A 8.936 8.936 0 0 0 2.309 4.922 A 11.771 11.771 0 0 0 3.203 1.772 A 2.417 2.417 0 0 0 3.207 1.641 L 3.598 1.465 L 5.512 4.668 L 6.02 2.227 L 5.121 0.566 Z M 55.785 0.156 L 56.059 0.078 L 56.352 1.777 L 56.762 1.797 A 1.395 1.395 0 0 1 57.78 2.865 A 0.689 0.689 0 0 1 57.777 2.93 A 3.299 3.299 0 0 1 56.352 3.633 A 13.27 13.27 0 0 0 55.824 5.664 L 57.387 5.352 L 58.871 5.039 L 59.047 5.195 L 56.195 8.047 L 56.234 8.906 A 23.371 23.371 0 0 1 56.918 14.473 L 56.625 16.172 A 5.565 5.565 0 0 1 57.484 18.184 L 57.211 18.32 L 56.645 17.48 L 56.488 17.461 L 55.355 19.609 L 55.316 19.336 L 55.883 17.246 L 55.785 17.188 L 54.496 18.184 L 54.496 17.891 Q 55.512 16.855 55.902 15.957 Q 56.293 15.059 56.352 13.477 L 56.059 13.32 L 54.77 14.609 L 54.926 14.043 A 8.758 8.758 0 0 0 55.912 12.9 Q 56.273 12.383 56.059 11.621 L 55.785 11.328 L 54.516 12.578 L 54.066 12.754 A 7.974 7.974 0 0 0 55.668 10.352 L 55.648 9.609 A 7.175 7.175 0 0 1 54.438 11.123 Q 53.793 11.719 52.934 12.051 A 20.163 20.163 0 0 0 55.531 8.945 L 55.531 8.32 L 54.652 8.652 L 52.348 8.672 L 52.074 8.77 L 52.27 9.844 L 52.211 11.328 L 51.781 13.613 A 3.685 3.685 0 0 1 52.904 16.084 A 3.971 3.971 0 0 1 52.907 16.227 A 4.482 4.482 0 0 1 52.074 18.75 L 51.645 18.887 A 75.234 75.234 0 0 0 50.678 16.486 A 2.999 2.999 0 0 0 50.551 16.221 A 0.548 0.548 0 0 1 50.515 15.976 Q 50.515 15.51 50.744 14.249 A 53.363 53.363 0 0 1 50.922 13.32 L 50.082 11.484 L 49.926 9.902 A 11.467 11.467 0 0 1 50.522 7.842 A 7.863 7.863 0 0 0 50.805 5.522 A 42.938 42.938 0 0 0 50.824 4.18 A 4.322 4.322 0 0 1 49.184 3.281 L 49.086 2.93 L 49.203 2.793 Q 49.594 2.773 51 2.188 L 51 1.094 L 51.41 1.211 L 51.488 2.09 A 15.43 15.43 0 0 0 51.729 2.092 A 3.504 3.504 0 0 0 53.07 1.934 L 53.051 1.289 L 53.168 0.879 L 53.559 1.328 L 53.637 1.953 A 9.06 9.06 0 0 1 55.357 1.759 A 4.737 4.737 0 0 1 55.785 1.777 L 55.785 0.156 Z M 26.586 0 L 26.879 1.445 Q 27.27 1.816 27.875 2.08 A 1.893 1.893 0 0 1 28.813 2.988 Q 28.09 2.656 27.572 2.363 Q 27.311 2.215 27.311 2.451 A 2.663 2.663 0 0 0 27.563 3.281 A 111.629 111.629 0 0 1 29.779 5.605 A 10.161 10.161 0 0 1 31.527 8.125 L 32.094 10.449 L 33.266 9.863 L 32.094 11.211 L 32.191 13.535 Q 32.016 14.922 31.967 16.572 Q 31.918 18.223 31.332 18.945 L 31.527 14.883 L 30.258 14.023 A 7.22 7.22 0 0 0 30.062 15.73 A 9.013 9.013 0 0 0 30.131 16.826 A 5.428 5.428 0 0 1 30.172 17.487 A 4.227 4.227 0 0 1 29.672 19.531 L 29.496 15.762 A 8.987 8.987 0 0 1 28.256 14.512 Q 27.719 13.848 27.836 13.145 L 29.398 15.371 L 29.77 12.383 A 13.13 13.13 0 0 0 28.041 12.578 A 3.743 3.743 0 0 1 27.377 12.638 A 3.892 3.892 0 0 1 26.293 12.48 A 5.278 5.278 0 0 0 25.609 15.449 Q 25.57 17.559 25.141 18.281 A 50.635 50.635 0 0 1 25.137 17.679 A 59.657 59.657 0 0 1 25.209 14.814 A 10.946 10.946 0 0 1 25.902 11.406 L 26.195 11.211 L 26.195 12.09 A 1.336 1.336 0 0 0 27.077 12.358 A 4.897 4.897 0 0 0 28.734 11.982 A 34.7 34.7 0 0 0 31.332 10.918 A 1.653 1.653 0 0 0 31.542 10.091 A 2.776 2.776 0 0 0 31.313 9.053 A 144.032 144.032 0 0 1 30.551 7.148 L 27.836 4.453 L 26.684 2.617 L 25.629 3.77 L 25.531 3.301 A 1.628 1.628 0 0 0 26.361 1.772 A 3.049 3.049 0 0 0 26.342 1.436 A 5.793 5.793 0 0 1 26.302 0.806 A 0.766 0.766 0 0 1 26.586 0 Z M 23.871 8.086 L 29.008 7.93 Q 29.926 8.223 30.463 8.877 Q 31 9.531 30.746 10.547 L 30.746 10.352 A 2.761 2.761 0 0 0 29.672 9.932 Q 29.164 9.863 28.52 9.863 Q 28.051 10.352 27.641 10.391 A 1.656 1.656 0 0 1 27.484 10.398 A 3.508 3.508 0 0 1 26.586 10.254 L 26.098 9.668 A 0.362 0.362 0 0 1 25.765 9.913 A 0.513 0.513 0 0 1 25.6 9.883 Q 25.258 9.766 24.945 9.57 L 23.969 8.32 L 23.871 8.086 Z M 51.645 5.652 A 32.042 32.042 0 0 0 51.605 4.16 A 5.368 5.368 0 0 0 52.68 4.268 A 5.966 5.966 0 0 0 53.793 4.16 Q 54.008 4.629 54.633 6.055 A 6.23 6.23 0 0 0 51.645 7.91 A 0.82 0.82 0 0 1 51.574 7.457 A 8.533 8.533 0 0 1 51.605 6.807 A 14.849 14.849 0 0 0 51.645 5.652 Z M 3.715 3.633 L 2.699 6.699 Q 3.988 6.68 5.258 6.055 L 3.715 3.633 Z M 4.359 7.598 L 2.699 8.867 L 2.816 9.375 A 18.736 18.736 0 0 0 4.171 9.419 A 28.629 28.629 0 0 0 4.691 9.414 A 1.607 1.607 0 0 0 6.02 9.004 L 4.359 7.598 Z M 51.078 8.477 A 3.465 3.465 0 0 0 50.588 10.162 A 2.605 2.605 0 0 0 50.6 10.41 Q 50.688 11.328 51.215 12.188 A 4.68 4.68 0 0 0 51.586 10.342 A 4.126 4.126 0 0 0 51.587 10.266 A 3.179 3.179 0 0 0 51.078 8.477 Z M 31.332 11.504 L 29.965 12.285 L 30.063 13.242 L 31.234 14.316 L 31.605 14.316 A 7.972 7.972 0 0 0 31.732 12.773 A 4.868 4.868 0 0 0 31.733 12.727 A 1.381 1.381 0 0 0 31.332 11.504 Z M 6.02 5.938 L 7.934 4.785 L 6.918 3.125 Q 6.527 3.926 6.117 4.6 A 1.456 1.456 0 0 0 5.884 5.361 A 1.342 1.342 0 0 0 6.02 5.937 Z M 26.391 8.32 A 1.755 1.755 0 0 0 26.266 8.91 A 0.722 0.722 0 0 0 26.332 9.229 A 5.2 5.2 0 0 0 26.781 9.961 A 2.73 2.73 0 0 0 27.514 10.137 A 0.594 0.594 0 0 0 27.552 10.138 A 1.22 1.22 0 0 0 28.227 9.863 A 2.124 2.124 0 0 0 28.303 9.335 A 0.754 0.754 0 0 0 27.895 8.594 A 3.101 3.101 0 0 0 26.504 8.319 A 5.333 5.333 0 0 0 26.391 8.32 Z M 54.926 6.777 L 54.496 6.777 A 4.05 4.05 0 0 0 52.777 7.91 Q 53.48 7.988 54.145 7.988 A 1.518 1.518 0 0 0 55.199 7.637 A 1.183 1.183 0 0 0 55.2 7.583 A 1.422 1.422 0 0 0 54.926 6.777 Z M 51.645 17.188 L 51.938 17.031 A 4.872 4.872 0 0 0 52.004 16.253 A 3.453 3.453 0 0 0 51.967 15.732 A 2.092 2.092 0 0 0 51.352 14.609 A 4.356 4.356 0 0 0 51.152 15.782 A 1.929 1.929 0 0 0 51.166 16.025 Q 51.234 16.563 51.645 17.188 Z M 28.617 8.32 L 28.715 9.668 L 30.258 9.57 Q 30.063 9.004 29.672 8.672 A 1.654 1.654 0 0 0 28.617 8.32 Z M 56.918 5.918 L 55.629 6.484 L 55.922 7.344 L 57.484 6.211 L 56.918 5.918 Z M 53.344 2.637 L 51.645 2.91 L 51.645 3.496 L 53.285 3.477 L 53.5 3.203 L 53.344 2.637 Z M 0.902 4.785 L 0.98 6.172 L 1.938 6.582 A 5.153 5.153 0 0 0 2.104 5.712 A 0.325 0.325 0 0 0 2.104 5.693 Q 2.094 5.527 0.902 4.785 Z M 54.027 2.5 L 54.203 3.359 L 55.629 2.93 L 55.766 2.363 Q 54.809 2.344 54.359 2.344 L 54.027 2.5 Z M 55.453 3.77 L 54.457 4.004 L 55.063 5.352 L 55.316 4.922 A 24.026 24.026 0 0 0 55.639 3.965 Q 55.705 3.745 55.567 3.745 A 0.353 0.353 0 0 0 55.453 3.77 Z M 25.629 9.57 L 26 9.473 A 1.76 1.76 0 0 0 25.775 8.672 A 0.985 0.985 0 0 0 25.077 8.514 A 4.604 4.604 0 0 0 24.945 8.516 A 0.789 0.789 0 0 0 24.87 8.825 A 0.393 0.393 0 0 0 25.063 9.17 A 9.296 9.296 0 0 1 25.629 9.57 Z M 50.355 3.203 L 50.512 3.496 L 51.078 3.359 L 50.648 2.93 L 50.355 3.203 Z M 57.113 2.461 L 56.488 2.5 L 56.527 2.773 L 57.074 2.793 L 57.113 2.461 Z" />
    </g>
  </svg>
<!--
  <svg transform="translate(50, 180)" width="156" height="50" viewBox="0 0 50 70" xmlns="http://www.w3.org/2000/svg">
    <g id="svgGroup" stroke-linecap="round" fill-rule="evenodd" font-size="9pt" stroke="#e5e7eb" stroke-width="0.15mm"
      fill="#e5e7eb" style="stroke:#e5e7eb;stroke-width:0.15mm;fill:#e5e7eb">
      <path
        d="M 26.004 14.86 L 25.984 14.86 Q 25.924 14.86 25.854 14.82 A 0.092 0.092 0 0 1 25.8 14.77 A 0.014 0.014 0 0 1 25.804 14.76 Q 26.144 14.22 26.454 13.68 Q 26.764 13.14 27.024 12.6 Q 27.244 12.18 27.504 11.71 Q 27.764 11.24 28.104 10.92 Q 28.444 10.6 28.884 10.6 Q 29.084 10.6 29.344 10.7 Q 29.624 10.82 29.624 11.24 Q 29.624 11.46 29.544 11.78 Q 29.464 12.1 29.324 12.5 Q 29.844 11.76 30.424 11.23 Q 31.004 10.7 31.484 10.7 Q 32.244 10.7 32.244 11.42 Q 32.244 11.86 31.984 12.5 Q 31.904 12.72 31.694 13.19 Q 31.484 13.66 31.274 14.23 Q 31.064 14.8 30.904 15.32 Q 30.744 15.84 30.744 16.18 Q 30.744 16.54 30.964 16.54 Q 31.104 16.54 31.334 16.41 Q 31.564 16.28 31.884 15.98 Q 32.464 15.46 32.974 14.66 A 29.718 29.718 0 0 0 33.793 13.259 A 5.326 5.326 0 0 1 35.144 11.31 Q 35.964 10.6 36.644 10.6 Q 37.224 10.6 37.434 10.94 Q 37.644 11.28 37.644 11.78 Q 37.644 12.3 37.474 12.87 Q 37.304 13.44 37.104 13.84 Q 36.864 14.34 36.604 14.78 Q 36.344 15.22 36.064 15.58 Q 36.244 15.74 36.504 15.74 Q 36.904 15.74 37.294 15.36 Q 37.684 14.98 38.034 14.42 Q 38.384 13.86 38.654 13.34 Q 38.924 12.82 39.064 12.56 A 0.107 0.107 0 0 1 39.121 12.507 A 40.725 40.725 0 0 0 39.124 12.5 Q 39.324 12.08 39.574 11.64 Q 39.824 11.2 40.154 10.9 Q 40.484 10.6 40.924 10.6 Q 41.144 10.6 41.404 10.7 Q 41.744 10.82 41.744 11.34 Q 41.744 12.08 41.004 13.82 Q 40.644 14.66 40.474 15.23 Q 40.304 15.8 40.304 16.12 Q 40.304 16.5 40.564 16.5 Q 40.844 16.5 41.464 15.98 Q 41.984 15.52 42.464 14.85 Q 42.944 14.18 43.484 13.06 Q 43.644 11.76 43.964 11.26 Q 44.284 10.76 44.544 10.76 Q 44.724 10.76 44.854 10.94 Q 44.984 11.12 44.984 11.4 Q 44.984 11.76 44.734 12.36 Q 44.484 12.96 44.124 13.82 Q 43.804 14.56 43.644 15.1 Q 43.484 15.64 43.484 15.98 Q 43.484 16.52 43.864 16.52 Q 44.244 16.52 44.964 15.98 Q 45.604 15.5 45.914 15.03 Q 46.224 14.56 46.324 14.36 Q 46.244 14.04 46.244 13.4 Q 46.244 13.22 46.254 13.03 Q 46.264 12.84 46.284 12.7 Q 46.384 11.66 46.804 11.13 Q 47.224 10.6 47.564 10.6 Q 47.984 10.6 47.984 11.16 Q 47.984 11.48 47.804 11.99 Q 47.624 12.5 47.374 13.02 Q 47.124 13.54 46.914 13.93 Q 46.704 14.32 46.624 14.42 L 46.694 14.65 Q 46.764 14.88 46.914 15.11 Q 47.064 15.34 47.324 15.34 Q 47.624 15.34 47.914 15 A 4.9 4.9 0 0 0 48.019 14.87 A 0.017 0.017 0 0 1 48.024 14.86 A 11.523 11.523 0 0 0 48.513 14.102 A 531.751 531.751 0 0 1 48.866 13.464 A 40.997 40.997 0 0 0 49.344 12.54 Q 49.544 12.12 49.794 11.67 Q 50.044 11.22 50.384 10.91 Q 50.724 10.6 51.164 10.6 Q 51.364 10.6 51.624 10.7 Q 51.924 10.82 51.924 11.22 Q 51.924 11.42 51.854 11.69 Q 51.784 11.96 51.664 12.3 Q 51.404 12.98 51.094 13.67 Q 50.784 14.36 50.524 15.06 Q 50.324 15.6 50.324 16.02 Q 50.324 16.48 50.624 16.48 Q 50.904 16.48 51.484 15.98 A 6.189 6.189 0 0 0 52.5 14.771 A 0.092 0.092 0 0 1 52.5 14.77 A 0.014 0.014 0 0 1 52.504 14.76 A 30.91 30.91 0 0 0 52.824 14.241 A 30.8 30.8 0 0 0 53.552 12.947 A 16.867 16.867 0 0 0 53.724 12.6 Q 53.944 12.18 54.204 11.71 Q 54.464 11.24 54.804 10.92 Q 55.144 10.6 55.584 10.6 Q 55.784 10.6 56.044 10.7 Q 56.324 10.82 56.324 11.24 Q 56.324 11.46 56.244 11.78 Q 56.164 12.1 56.024 12.5 Q 56.544 11.76 57.124 11.23 Q 57.704 10.7 58.184 10.7 Q 58.944 10.7 58.944 11.42 Q 58.944 11.86 58.684 12.5 Q 58.604 12.72 58.394 13.19 Q 58.184 13.66 57.974 14.23 Q 57.764 14.8 57.604 15.32 Q 57.444 15.84 57.444 16.18 Q 57.444 16.54 57.664 16.54 Q 57.804 16.54 58.034 16.41 Q 58.264 16.28 58.584 15.98 Q 59.164 15.46 59.674 14.66 A 29.718 29.718 0 0 0 60.141 13.883 A 8.125 8.125 0 0 1 60.384 13.28 Q 61.024 11.94 62.174 11.23 Q 63.324 10.52 64.544 10.52 L 64.874 10.52 Q 65.044 10.52 65.204 10.56 Q 65.604 10.62 65.604 10.66 Q 65.604 10.7 65.314 10.74 Q 65.024 10.78 64.884 10.78 Q 63.904 10.78 63.134 11.3 Q 62.364 11.82 61.824 12.62 Q 61.284 13.42 60.994 14.25 Q 60.704 15.08 60.704 15.68 Q 60.704 16.06 60.834 16.3 Q 60.964 16.54 61.224 16.54 Q 61.504 16.54 61.864 16.16 Q 62.224 15.78 62.564 15.23 Q 62.904 14.68 63.184 14.15 Q 63.464 13.62 63.604 13.34 L 64.464 11.54 Q 64.804 11.46 65.224 11.34 Q 65.644 11.22 65.964 11.08 Q 65.644 11.44 65.264 12.07 Q 64.884 12.7 64.604 13.32 Q 64.304 14.02 64.094 14.59 Q 63.884 15.16 63.694 15.7 Q 63.504 16.24 63.264 16.9 Q 64.224 16.3 64.794 15.71 A 7.504 7.504 0 0 0 65.728 14.526 A 3.791 3.791 0 0 1 65.684 13.96 Q 65.684 13.4 65.824 12.92 Q 66.124 11.84 66.854 10.93 Q 67.584 10.02 68.714 9.4 Q 69.844 8.78 71.324 8.62 Q 71.064 8.34 70.914 7.86 A 3.265 3.265 0 0 1 70.796 6.903 A 6.47 6.47 0 0 1 70.804 6.58 Q 70.504 6.24 70.364 5.84 Q 70.224 5.44 70.224 5.04 Q 70.224 4.28 70.664 3.57 Q 71.104 2.86 71.804 2.48 Q 72.504 2.1 73.284 2.1 A 2.965 2.965 0 0 1 73.774 2.14 A 2.574 2.574 0 0 1 74.874 2.6 Q 75.564 3.1 75.564 3.9 Q 75.564 4.12 75.504 4.34 Q 76.104 4.5 76.474 4.9 Q 76.844 5.3 76.924 5.72 Q 76.984 5.98 76.984 6.2 Q 76.984 7.14 76.234 7.67 Q 75.484 8.2 74.404 8.2 Q 73.624 8.2 72.784 7.9 Q 72.304 7.74 71.944 7.5 Q 71.584 7.26 71.324 7 Q 71.304 7.08 71.304 7.15 L 71.304 7.3 Q 71.304 7.56 71.394 7.81 Q 71.484 8.06 71.624 8.32 Q 71.664 8.4 71.724 8.46 Q 71.784 8.52 71.824 8.58 Q 72.284 8.56 72.774 8.58 Q 73.264 8.6 73.784 8.68 Q 74.564 8.8 74.564 9.24 Q 74.564 9.44 74.364 9.57 Q 74.164 9.7 73.824 9.7 Q 73.324 9.7 72.764 9.52 Q 72.204 9.34 71.744 9.02 Q 70.844 9.18 69.884 9.62 Q 68.924 10.06 68.174 10.87 Q 67.424 11.68 67.084 12.98 Q 66.944 13.48 66.944 14.04 Q 66.944 14.94 67.344 15.7 Q 67.744 16.46 68.524 16.93 Q 69.304 17.4 70.424 17.4 Q 71.624 17.4 72.674 16.92 Q 73.724 16.44 74.454 15.66 Q 75.184 14.88 75.404 14.02 Q 75.524 13.5 75.524 13.12 Q 75.524 12.18 74.934 11.79 Q 74.344 11.4 73.504 11.4 Q 72.924 11.4 72.284 11.56 Q 71.644 11.72 71.084 11.98 Q 70.284 12.36 69.834 12.99 Q 69.384 13.62 69.384 14.24 Q 69.384 14.94 69.944 15.38 Q 70.264 15.64 70.764 15.64 Q 71.164 15.64 71.554 15.47 Q 71.944 15.3 72.184 15.01 A 0.823 0.823 0 0 0 72.39 14.476 A 0.822 0.822 0 0 0 72.384 14.38 L 72.384 14.34 Q 72.384 14.14 72.544 14.14 Q 72.724 14.14 72.744 14.34 A 1.698 1.698 0 0 1 72.758 14.556 A 1.185 1.185 0 0 1 72.244 15.56 Q 71.644 16 70.864 16 Q 70.244 16 69.664 15.7 Q 69.104 15.38 68.834 14.88 Q 68.564 14.38 68.564 13.82 Q 68.564 13.02 69.034 12.26 Q 69.504 11.5 70.304 11.12 Q 70.844 10.86 71.544 10.77 Q 72.244 10.68 73.004 10.68 Q 74.224 10.68 75.474 10.82 Q 76.724 10.96 77.644 11.02 A 32.507 32.507 0 0 0 78.421 11.05 A 11.55 11.55 0 0 1 78.854 8.99 Q 79.364 7.3 80.374 5.78 Q 81.384 4.26 82.894 3.07 Q 84.404 1.88 86.404 1.19 Q 88.404 0.5 90.904 0.5 Q 93.004 0.5 94.284 1.01 Q 95.564 1.52 96.154 2.34 Q 96.744 3.16 96.744 4.14 Q 96.744 5.36 95.924 6.61 Q 95.104 7.86 93.744 8.72 Q 94.744 9.3 95.224 10.21 Q 95.704 11.12 95.704 12.12 Q 95.704 13.16 95.214 14.19 Q 94.724 15.22 93.754 16.07 Q 92.784 16.92 91.364 17.44 Q 89.944 17.96 88.104 17.96 Q 86.824 17.96 85.874 17.66 Q 84.924 17.36 84.284 16.86 Q 83.324 18.18 82.164 19.28 Q 82.984 19.84 84.054 20.16 Q 85.124 20.48 86.404 20.48 L 86.714 20.48 Q 86.864 20.48 87.024 20.46 Q 87.124 20.46 87.134 20.56 A 0.175 0.175 0 0 1 87.135 20.577 A 0.077 0.077 0 0 1 87.044 20.66 Q 86.884 20.68 86.704 20.68 L 86.364 20.68 Q 85.024 20.68 83.914 20.37 Q 82.804 20.06 81.904 19.5 Q 80.704 20.6 79.304 21.34 Q 77.904 22.08 76.304 22.34 Q 75.924 22.4 75.504 22.44 Q 75.084 22.48 74.684 22.48 Q 73.804 22.48 73.024 22.25 Q 72.244 22.02 71.764 21.48 Q 71.284 20.94 71.284 20.02 Q 71.284 19.7 71.344 19.38 Q 71.344 19.26 71.484 19.26 Q 71.604 19.26 71.604 19.36 Q 71.604 19.48 71.594 19.58 Q 71.584 19.68 71.584 19.8 Q 71.584 20.64 72.074 21.18 Q 72.564 21.72 73.344 21.98 Q 74.124 22.24 74.984 22.24 Q 75.944 22.24 76.844 21.96 Q 78.044 21.58 79.114 20.77 Q 80.184 19.96 81.104 18.92 Q 79.724 17.74 79.034 16.01 Q 78.344 14.28 78.344 12.34 A 11.55 11.55 0 0 1 78.378 11.497 A 666.708 666.708 0 0 1 77.624 11.46 Q 77.164 11.42 76.634 11.4 Q 76.104 11.38 75.524 11.38 Q 75.984 11.66 76.184 12.13 Q 76.384 12.6 76.384 13.18 Q 76.384 13.6 76.264 14.06 Q 75.964 15.2 75.024 16.04 Q 74.084 16.88 72.784 17.34 Q 71.484 17.8 70.124 17.8 Q 68.604 17.8 67.624 17.24 Q 66.644 16.68 66.164 15.8 A 3.791 3.791 0 0 1 65.789 14.841 A 7.099 7.099 0 0 1 64.794 16.02 Q 64.164 16.62 63.144 17.24 Q 62.804 18.14 62.344 19.26 Q 61.884 20.38 61.354 21.45 Q 60.824 22.52 60.244 23.32 Q 59.744 24.02 59.194 24.38 Q 58.644 24.74 58.244 24.74 Q 57.924 24.74 57.734 24.53 Q 57.544 24.32 57.544 23.9 Q 57.544 23.56 57.694 23.1 Q 57.844 22.64 58.164 22.06 Q 58.564 21.34 59.104 20.58 Q 59.644 19.82 60.244 19.14 Q 60.844 18.46 61.374 17.96 Q 61.904 17.46 62.264 17.28 Q 62.344 17.08 62.494 16.64 Q 62.644 16.2 62.814 15.71 Q 62.984 15.22 63.104 14.88 L 63.224 14.54 Q 62.944 15.04 62.594 15.57 Q 62.244 16.1 61.844 16.47 Q 61.444 16.84 60.984 16.84 Q 60.304 16.84 60.054 16.45 Q 59.804 16.06 59.804 15.52 A 4.09 4.09 0 0 1 59.884 14.76 A 30.304 30.304 0 0 1 59.754 14.97 Q 59.164 15.9 58.574 16.37 Q 57.984 16.84 57.264 16.84 Q 56.424 16.84 56.424 15.9 Q 56.424 15.54 56.564 15.04 Q 56.704 14.54 57.004 13.94 Q 57.164 13.6 57.434 13.13 Q 57.704 12.66 57.924 12.2 Q 58.144 11.74 58.144 11.48 Q 58.144 11.22 57.864 11.22 Q 57.484 11.22 57.074 11.63 Q 56.664 12.04 56.264 12.68 Q 55.864 13.32 55.504 14.02 Q 55.144 14.72 54.884 15.33 Q 54.624 15.94 54.504 16.26 Q 54.384 16.56 54.164 16.64 Q 53.944 16.72 53.694 16.72 Q 53.444 16.72 53.224 16.8 Q 53.504 16.16 53.684 15.76 Q 53.864 15.36 54.064 14.95 Q 54.264 14.54 54.544 13.84 Q 54.704 13.48 54.904 13.01 Q 55.104 12.54 55.254 12.09 Q 55.404 11.64 55.404 11.38 Q 55.404 11.08 55.204 11.08 Q 54.964 11.08 54.724 11.38 Q 54.484 11.68 54.294 12.05 Q 54.104 12.42 53.984 12.64 Q 53.684 13.22 53.384 13.78 Q 53.084 14.34 52.704 14.86 L 52.698 14.86 A 20.273 20.273 0 0 1 52.064 15.77 Q 51.224 16.84 50.164 16.84 Q 49.804 16.84 49.594 16.57 Q 49.384 16.3 49.384 15.86 Q 49.384 15.3 49.614 14.66 Q 49.844 14.02 50.154 13.37 Q 50.464 12.72 50.704 12.14 Q 50.804 11.86 50.884 11.64 Q 50.964 11.42 50.964 11.28 Q 50.964 11.08 50.784 11.08 Q 50.544 11.08 50.304 11.38 Q 50.064 11.68 49.874 12.05 Q 49.684 12.42 49.564 12.64 Q 49.264 13.22 48.914 13.84 A 14.694 14.694 0 0 1 48.62 14.341 A 42.749 42.749 0 0 0 48.544 14.48 Q 48.284 14.96 47.984 15.26 Q 47.684 15.56 47.264 15.56 Q 46.884 15.56 46.674 15.24 Q 46.464 14.92 46.424 14.72 Q 46.204 15.06 45.774 15.56 Q 45.344 16.06 44.764 16.45 Q 44.184 16.84 43.484 16.84 Q 43.044 16.84 42.854 16.58 Q 42.664 16.32 42.664 15.88 Q 42.664 15.6 42.734 15.29 Q 42.804 14.98 42.904 14.62 Q 42.284 15.6 41.554 16.22 Q 40.824 16.84 40.144 16.84 Q 39.364 16.84 39.364 16 Q 39.364 15.3 39.984 13.96 Q 40.144 13.62 40.334 13.15 Q 40.524 12.68 40.654 12.21 Q 40.784 11.74 40.784 11.44 Q 40.784 11.08 40.564 11.08 Q 40.324 11.08 40.084 11.37 Q 39.844 11.66 39.654 12.03 Q 39.464 12.4 39.344 12.62 Q 39.044 13.2 38.674 13.86 Q 38.304 14.52 37.944 15.04 L 37.934 15.05 A 0.079 0.079 0 0 1 37.893 15.061 A 5.605 5.605 0 0 1 37.384 15.62 Q 37.144 15.84 36.924 15.94 Q 36.704 16.04 36.524 16.04 Q 36.184 16.04 35.924 15.78 Q 35.544 16.28 35.144 16.56 Q 34.744 16.84 34.364 16.84 Q 33.704 16.84 33.454 16.47 Q 33.204 16.1 33.204 15.56 A 4.187 4.187 0 0 1 33.365 14.459 A 30.304 30.304 0 0 1 33.054 14.97 Q 32.464 15.9 31.874 16.37 Q 31.284 16.84 30.564 16.84 Q 29.724 16.84 29.724 15.9 Q 29.724 15.54 29.864 15.04 Q 30.004 14.54 30.304 13.94 Q 30.464 13.6 30.734 13.13 Q 31.004 12.66 31.224 12.2 Q 31.444 11.74 31.444 11.48 Q 31.444 11.22 31.164 11.22 Q 30.784 11.22 30.374 11.63 Q 29.964 12.04 29.564 12.68 Q 29.164 13.32 28.804 14.02 Q 28.444 14.72 28.184 15.33 Q 27.924 15.94 27.804 16.26 Q 27.684 16.56 27.464 16.64 Q 27.244 16.72 26.994 16.72 Q 26.744 16.72 26.524 16.8 Q 26.804 16.16 26.984 15.76 Q 27.164 15.36 27.364 14.95 Q 27.564 14.54 27.844 13.84 Q 28.004 13.48 28.204 13.01 Q 28.404 12.54 28.554 12.09 Q 28.704 11.64 28.704 11.38 Q 28.704 11.08 28.504 11.08 Q 28.264 11.08 28.024 11.38 Q 27.784 11.68 27.594 12.05 Q 27.404 12.42 27.284 12.64 Q 26.984 13.22 26.684 13.78 Q 26.384 14.34 26.004 14.86 Z M 0.004 18.66 L 0.004 18.46 Q 0.004 18.3 0.034 18.1 Q 0.064 17.9 0.184 17.9 Q 0.304 17.9 0.304 18.04 Q 0.304 18.12 0.294 18.22 Q 0.284 18.32 0.284 18.42 Q 0.284 19.34 0.814 19.88 Q 1.344 20.42 2.134 20.65 Q 2.924 20.88 3.684 20.88 Q 5.004 20.88 6.144 20.39 Q 7.284 19.9 8.254 19.08 Q 9.224 18.26 10.034 17.27 Q 10.844 16.28 11.524 15.28 Q 10.084 14.86 8.844 13.97 Q 7.604 13.08 6.854 11.8 Q 6.104 10.52 6.104 8.94 Q 6.104 7.42 6.764 6.24 Q 7.424 5.06 8.514 4.18 Q 9.604 3.3 10.914 2.71 Q 12.224 2.12 13.504 1.8 Q 14.824 1.46 16.164 1.31 Q 17.504 1.16 18.844 1.12 Q 19.324 1.08 19.804 1.08 L 20.744 1.08 Q 21.284 1.08 21.824 1.09 Q 22.364 1.1 22.884 1.1 Q 23.024 1.1 23.294 1.15 Q 23.564 1.2 23.564 1.42 Q 23.564 1.56 23.434 1.64 Q 23.304 1.72 23.184 1.72 Q 22.984 1.72 22.794 1.62 Q 22.604 1.52 22.324 1.52 Q 21.684 1.52 21.014 2.05 Q 20.344 2.58 19.684 3.45 Q 19.024 4.32 18.404 5.35 Q 17.784 6.38 17.264 7.41 Q 16.744 8.44 16.364 9.3 Q 15.984 10.16 15.764 10.64 L 15.844 10.72 Q 16.604 9.72 17.704 8.48 Q 18.804 7.24 20.114 5.96 Q 21.424 4.68 22.834 3.52 Q 24.244 2.36 25.624 1.5 Q 27.004 0.64 28.224 0.26 Q 29.084 0 30.044 0 Q 30.564 0 31.154 0.13 Q 31.744 0.26 32.274 0.55 Q 32.804 0.84 33.134 1.29 Q 33.464 1.74 33.464 2.38 Q 33.464 3.04 33.084 3.59 Q 32.704 4.14 32.114 4.58 Q 31.524 5.02 30.874 5.34 Q 30.224 5.66 29.704 5.86 Q 29.584 5.9 29.524 5.9 Q 29.344 5.9 29.344 5.78 Q 29.344 5.7 29.404 5.65 Q 29.464 5.6 29.524 5.58 Q 29.804 5.48 30.064 5.39 Q 30.324 5.3 30.584 5.2 Q 31.064 4.98 31.664 4.62 Q 32.264 4.26 32.714 3.76 Q 33.164 3.26 33.164 2.66 Q 33.164 2.18 32.874 1.85 Q 32.584 1.52 32.144 1.33 Q 31.704 1.14 31.234 1.06 Q 30.764 0.98 30.384 0.98 Q 29.884 0.98 29.364 1.06 Q 28.844 1.14 28.364 1.3 Q 27.224 1.64 25.874 2.45 Q 24.524 3.26 23.124 4.35 Q 21.724 5.44 20.404 6.65 Q 19.084 7.86 17.984 9.01 Q 16.884 10.16 16.124 11.08 Q 16.804 11.94 17.434 12.87 Q 18.064 13.8 18.724 14.7 Q 20.084 14.2 21.284 13.32 Q 22.484 12.44 23.184 11.14 Q 23.344 10.86 23.454 10.58 Q 23.564 10.3 23.664 10.02 Q 23.704 9.92 23.804 9.92 A 0.133 0.133 0 0 1 23.964 10.06 Q 23.964 10.1 23.944 10.12 Q 23.584 11.28 22.814 12.21 Q 22.044 13.14 21.024 13.81 Q 20.004 14.48 18.884 14.9 Q 19.264 15.4 19.774 16.01 Q 20.284 16.62 20.894 17.17 Q 21.504 17.72 22.174 18.07 Q 22.844 18.42 23.544 18.42 Q 24.284 18.42 24.714 18.05 Q 25.144 17.68 25.334 17.1 Q 25.524 16.52 25.524 15.88 Q 25.524 15.26 25.404 14.65 Q 25.284 14.04 25.124 13.46 L 25.124 13.4 Q 25.124 13.26 25.264 13.26 Q 25.384 13.26 25.484 13.59 Q 25.584 13.92 25.654 14.37 Q 25.724 14.82 25.754 15.21 Q 25.784 15.6 25.784 15.74 Q 25.784 17.2 25.004 18.18 Q 24.224 19.16 22.684 19.16 Q 21.464 19.16 20.514 18.6 Q 19.564 18.04 18.824 17.15 Q 18.084 16.26 17.484 15.32 Q 16.024 15.68 14.484 15.68 Q 14.104 15.68 13.724 15.65 Q 13.344 15.62 12.944 15.58 Q 11.804 17.12 10.354 18.38 Q 8.904 19.64 7.174 20.39 Q 5.444 21.14 3.424 21.14 Q 2.604 21.14 1.814 20.93 Q 1.024 20.72 0.514 20.18 Q 0.004 19.64 0.004 18.66 Z M 98.124 16.94 Q 97.264 16.94 96.904 16.35 Q 96.544 15.76 96.544 15 Q 96.544 14.54 96.644 14.1 Q 96.744 13.66 96.884 13.28 Q 97.104 12.74 97.514 12.13 Q 97.924 11.52 98.504 11.08 Q 99.084 10.64 99.764 10.64 Q 100.324 10.64 100.544 10.95 Q 100.764 11.26 100.764 11.72 L 100.764 11.87 Q 100.764 11.94 100.744 12.04 Q 100.684 12.58 100.324 13.16 Q 99.964 13.74 99.424 14.13 Q 98.884 14.52 98.264 14.52 Q 97.904 14.52 97.624 14.32 Q 97.444 15 97.444 15.56 Q 97.444 16.02 97.614 16.32 Q 97.784 16.62 98.144 16.62 Q 98.564 16.62 99.154 16.25 Q 99.744 15.88 100.434 14.98 A 13.199 13.199 0 0 0 100.766 14.501 A 11.523 11.523 0 0 0 101.234 13.71 A 40.997 40.997 0 0 0 101.765 12.697 A 13.199 13.199 0 0 0 101.844 12.52 A 0.031 0.031 0 0 1 101.863 12.5 A 15.656 15.656 0 0 1 102.294 11.67 Q 102.544 11.22 102.884 10.91 Q 103.224 10.6 103.664 10.6 Q 103.864 10.6 104.124 10.7 Q 104.424 10.82 104.424 11.22 Q 104.424 11.42 104.354 11.69 Q 104.284 11.96 104.164 12.3 Q 103.904 12.98 103.594 13.67 Q 103.284 14.36 103.024 15.06 Q 102.824 15.6 102.824 16.02 Q 102.824 16.48 103.124 16.48 Q 103.404 16.48 103.984 15.98 A 6.189 6.189 0 0 0 105 14.771 A 0.092 0.092 0 0 1 105 14.77 A 0.014 0.014 0 0 1 105.004 14.76 A 30.91 30.91 0 0 0 105.324 14.241 A 30.8 30.8 0 0 0 106.052 12.947 A 16.867 16.867 0 0 0 106.224 12.6 Q 106.444 12.18 106.704 11.71 Q 106.964 11.24 107.304 10.92 Q 107.644 10.6 108.084 10.6 Q 108.284 10.6 108.544 10.7 Q 108.824 10.82 108.824 11.24 Q 108.824 11.46 108.744 11.78 Q 108.664 12.1 108.524 12.5 Q 109.044 11.76 109.624 11.23 Q 110.204 10.7 110.684 10.7 Q 111.444 10.7 111.444 11.42 Q 111.444 11.86 111.184 12.5 Q 111.104 12.72 110.894 13.19 Q 110.684 13.66 110.474 14.23 Q 110.264 14.8 110.104 15.32 Q 109.944 15.84 109.944 16.18 Q 109.944 16.54 110.164 16.54 Q 110.304 16.54 110.534 16.41 Q 110.764 16.28 111.084 15.98 Q 111.664 15.46 112.174 14.66 A 29.718 29.718 0 0 0 112.641 13.883 A 8.125 8.125 0 0 1 112.884 13.28 Q 113.524 11.94 114.674 11.23 Q 115.824 10.52 117.044 10.52 L 117.374 10.52 Q 117.544 10.52 117.704 10.56 Q 118.104 10.62 118.104 10.66 Q 118.104 10.7 117.814 10.74 Q 117.524 10.78 117.384 10.78 Q 116.404 10.78 115.634 11.3 Q 114.864 11.82 114.324 12.62 Q 113.784 13.42 113.494 14.25 Q 113.204 15.08 113.204 15.68 Q 113.204 16.06 113.334 16.3 Q 113.464 16.54 113.724 16.54 Q 114.004 16.54 114.364 16.16 Q 114.724 15.78 115.064 15.23 Q 115.404 14.68 115.684 14.15 Q 115.964 13.62 116.104 13.34 L 116.964 11.54 Q 117.304 11.46 117.724 11.34 Q 118.144 11.22 118.464 11.08 Q 118.144 11.44 117.764 12.07 Q 117.384 12.7 117.104 13.32 Q 116.804 14.02 116.594 14.59 Q 116.384 15.16 116.194 15.7 Q 116.004 16.24 115.764 16.9 Q 116.724 16.3 117.294 15.71 Q 117.864 15.12 118.294 14.42 Q 118.724 13.72 119.204 12.82 Q 119.244 12.76 119.304 12.76 Q 119.364 12.76 119.404 12.81 Q 119.444 12.86 119.404 12.94 Q 118.864 13.94 118.394 14.68 Q 117.924 15.42 117.294 16.02 Q 116.664 16.62 115.644 17.24 Q 115.304 18.14 114.844 19.26 Q 114.384 20.38 113.854 21.45 Q 113.324 22.52 112.744 23.32 Q 112.244 24.02 111.694 24.38 Q 111.144 24.74 110.744 24.74 Q 110.424 24.74 110.234 24.53 Q 110.044 24.32 110.044 23.9 Q 110.044 23.56 110.194 23.1 Q 110.344 22.64 110.664 22.06 Q 111.064 21.34 111.604 20.58 Q 112.144 19.82 112.744 19.14 Q 113.344 18.46 113.874 17.96 Q 114.404 17.46 114.764 17.28 Q 114.844 17.08 114.994 16.64 Q 115.144 16.2 115.314 15.71 Q 115.484 15.22 115.604 14.88 L 115.724 14.54 Q 115.444 15.04 115.094 15.57 Q 114.744 16.1 114.344 16.47 Q 113.944 16.84 113.484 16.84 Q 112.804 16.84 112.554 16.45 Q 112.304 16.06 112.304 15.52 A 4.09 4.09 0 0 1 112.384 14.76 A 30.304 30.304 0 0 1 112.254 14.97 Q 111.664 15.9 111.074 16.37 Q 110.484 16.84 109.764 16.84 Q 108.924 16.84 108.924 15.9 Q 108.924 15.54 109.064 15.04 Q 109.204 14.54 109.504 13.94 Q 109.664 13.6 109.934 13.13 Q 110.204 12.66 110.424 12.2 Q 110.644 11.74 110.644 11.48 Q 110.644 11.22 110.364 11.22 Q 109.984 11.22 109.574 11.63 Q 109.164 12.04 108.764 12.68 Q 108.364 13.32 108.004 14.02 Q 107.644 14.72 107.384 15.33 Q 107.124 15.94 107.004 16.26 Q 106.884 16.56 106.664 16.64 Q 106.444 16.72 106.194 16.72 Q 105.944 16.72 105.724 16.8 Q 106.004 16.16 106.184 15.76 Q 106.364 15.36 106.564 14.95 Q 106.764 14.54 107.044 13.84 Q 107.204 13.48 107.404 13.01 Q 107.604 12.54 107.754 12.09 Q 107.904 11.64 107.904 11.38 Q 107.904 11.08 107.704 11.08 Q 107.464 11.08 107.224 11.38 Q 106.984 11.68 106.794 12.05 Q 106.604 12.42 106.484 12.64 Q 106.184 13.22 105.884 13.78 Q 105.584 14.34 105.204 14.86 L 105.198 14.86 A 20.273 20.273 0 0 1 104.564 15.77 Q 103.724 16.84 102.664 16.84 Q 102.304 16.84 102.094 16.57 Q 101.884 16.3 101.884 15.86 Q 101.884 15.3 102.114 14.66 Q 102.344 14.02 102.654 13.37 Q 102.964 12.72 103.204 12.14 Q 103.304 11.86 103.384 11.64 Q 103.464 11.42 103.464 11.28 Q 103.464 11.08 103.284 11.08 Q 103.044 11.08 102.804 11.38 Q 102.564 11.68 102.374 12.05 Q 102.184 12.42 102.064 12.64 A 37.365 37.365 0 0 1 101.975 12.812 A 10.221 10.221 0 0 1 99.974 15.9 Q 98.884 16.94 98.124 16.94 Z M 79.024 11.06 A 29.294 29.294 0 0 0 79.184 11.06 Q 80.504 11.06 81.364 10.82 Q 82.224 10.58 82.364 9.86 A 0.744 0.744 0 0 0 82.374 9.738 A 0.854 0.854 0 0 0 82.134 9.17 Q 81.844 8.84 81.484 8.82 Q 81.284 8.82 81.284 8.68 Q 81.284 8.52 81.504 8.52 Q 82.084 8.52 82.454 8.93 A 1.071 1.071 0 0 1 82.745 9.669 A 1.316 1.316 0 0 1 82.724 9.9 Q 82.624 10.56 82.124 10.91 Q 81.624 11.26 80.874 11.39 Q 80.124 11.52 79.244 11.52 A 16.624 16.624 0 0 1 78.98 11.518 A 11.834 11.834 0 0 0 78.944 12.4 Q 78.944 14.22 79.534 15.85 Q 80.124 17.48 81.344 18.62 Q 81.904 17.96 82.404 17.25 Q 82.904 16.54 83.364 15.8 Q 83.084 15.3 82.954 14.77 Q 82.824 14.24 82.824 13.7 Q 82.824 12.5 83.384 11.43 Q 83.944 10.36 84.844 9.88 Q 84.864 9.86 84.904 9.86 Q 84.964 9.86 84.994 9.93 Q 85.024 10 84.944 10.04 Q 84.084 10.5 83.554 11.51 Q 83.024 12.52 83.024 13.64 Q 83.024 14.14 83.134 14.63 Q 83.244 15.12 83.504 15.58 Q 84.264 14.34 84.924 13.12 Q 85.584 11.9 86.124 10.92 Q 87.544 8.36 88.864 6.49 Q 90.184 4.62 91.414 3.59 Q 92.644 2.56 93.744 2.56 Q 94.084 2.56 94.324 2.64 Q 94.384 2.66 94.384 2.74 A 0.085 0.085 0 0 1 94.296 2.843 A 0.194 0.194 0 0 1 94.264 2.84 Q 94.084 2.78 93.884 2.78 Q 93.164 2.78 92.324 3.48 Q 91.484 4.18 90.614 5.4 Q 89.744 6.62 88.884 8.22 Q 89.164 8.06 89.514 7.97 Q 89.864 7.88 90.264 7.88 Q 91.084 7.88 91.784 8.01 Q 92.484 8.14 93.044 8.36 Q 94.104 7.48 94.764 6.27 Q 95.424 5.06 95.424 3.9 Q 95.424 3.02 94.974 2.3 Q 94.524 1.58 93.534 1.14 Q 92.544 0.7 90.904 0.7 Q 88.524 0.7 86.614 1.38 Q 84.704 2.06 83.274 3.24 Q 81.844 4.42 80.874 5.93 Q 79.904 7.44 79.424 9.1 A 11.834 11.834 0 0 0 79.024 11.06 Z M 21.524 1.4 L 20.484 1.38 A 10.858 10.858 0 0 0 19.942 1.367 A 11.671 11.671 0 0 0 19.664 1.37 Q 19.244 1.38 18.844 1.42 Q 17.624 1.46 16.404 1.6 Q 15.184 1.74 13.984 2.06 Q 12.764 2.38 11.574 2.95 Q 10.384 3.52 9.404 4.36 Q 8.424 5.2 7.844 6.32 Q 7.264 7.44 7.264 8.86 Q 7.264 10.26 7.874 11.45 Q 8.484 12.64 9.514 13.51 Q 10.544 14.38 11.804 14.86 Q 12.504 13.8 13.124 12.68 L 14.364 10.44 Q 14.044 10.08 13.594 9.68 Q 13.144 9.28 12.644 9.01 Q 12.144 8.74 11.624 8.74 Q 11.504 8.74 11.374 8.78 Q 11.244 8.82 11.124 8.82 Q 11.044 8.82 11.044 8.74 Q 11.044 8.6 11.264 8.53 Q 11.484 8.46 11.744 8.42 Q 12.004 8.38 12.084 8.38 Q 12.844 8.38 13.544 8.78 Q 14.244 9.18 14.784 9.66 Q 15.164 8.96 15.724 8.01 Q 16.284 7.06 16.964 6.03 Q 17.644 5 18.394 4.05 Q 19.144 3.1 19.944 2.4 Q 20.744 1.7 21.524 1.4 Z M 88.004 17.76 Q 89.524 17.76 90.684 17.23 Q 91.844 16.7 92.644 15.84 Q 93.444 14.98 93.854 13.95 Q 94.264 12.92 94.264 11.9 Q 94.264 11.08 93.984 10.34 Q 93.704 9.6 93.124 9.06 Q 92.404 9.42 91.574 9.62 Q 90.744 9.82 89.864 9.82 Q 89.184 9.82 88.814 9.68 Q 88.444 9.54 88.304 9.34 Q 88.004 9.94 87.704 10.57 Q 87.404 11.2 87.124 11.86 Q 86.564 13.12 85.894 14.34 Q 85.224 15.56 84.404 16.68 Q 85.004 17.16 85.894 17.46 Q 86.784 17.76 88.004 17.76 Z M 74.244 7.78 Q 75.184 7.78 75.754 7.25 Q 76.324 6.72 76.324 6.04 Q 76.324 5.62 76.124 5.22 Q 75.924 4.82 75.364 4.66 Q 75.084 5.34 74.614 5.64 Q 74.144 5.94 73.684 5.94 Q 73.284 5.94 72.954 5.76 Q 72.624 5.58 72.624 5.3 Q 72.624 5.14 72.694 5.07 Q 72.764 5 72.844 5 Q 73.004 5 73.004 5.2 Q 73.004 5.34 73.184 5.44 Q 73.364 5.54 73.624 5.54 Q 74.004 5.54 74.434 5.32 Q 74.864 5.1 75.064 4.56 Q 74.764 4.5 74.424 4.5 Q 73.764 4.5 73.114 4.72 Q 72.464 4.94 72.004 5.37 Q 71.544 5.8 71.404 6.48 Q 71.624 6.82 71.994 7.05 Q 72.364 7.28 72.904 7.5 Q 73.264 7.64 73.604 7.71 Q 73.944 7.78 74.244 7.78 Z M 58.304 24.46 Q 58.544 24.46 58.914 24.1 Q 59.284 23.74 59.744 22.94 Q 60.124 22.26 60.514 21.45 Q 60.904 20.64 61.244 19.86 Q 61.584 19.08 61.824 18.5 Q 62.064 17.92 62.144 17.72 Q 61.724 17.96 61.224 18.46 Q 60.724 18.96 60.204 19.6 Q 59.684 20.24 59.234 20.94 Q 58.784 21.64 58.464 22.28 Q 58.204 22.78 58.094 23.2 Q 57.984 23.62 57.984 23.9 Q 57.984 24.46 58.304 24.46 Z M 110.804 24.46 Q 111.044 24.46 111.414 24.1 Q 111.784 23.74 112.244 22.94 Q 112.624 22.26 113.014 21.45 Q 113.404 20.64 113.744 19.86 Q 114.084 19.08 114.324 18.5 Q 114.564 17.92 114.644 17.72 Q 114.224 17.96 113.724 18.46 Q 113.224 18.96 112.704 19.6 Q 112.184 20.24 111.734 20.94 Q 111.284 21.64 110.964 22.28 Q 110.704 22.78 110.594 23.2 Q 110.484 23.62 110.484 23.9 Q 110.484 24.46 110.804 24.46 Z M 34.604 16.54 Q 34.824 16.54 35.124 16.27 Q 35.424 16 35.744 15.56 L 35.634 15.36 Q 35.524 15.16 35.524 14.76 Q 35.524 14.6 35.544 14.41 Q 35.564 14.22 35.644 14.02 Q 35.784 13.62 35.984 13.43 Q 36.184 13.24 36.384 13.24 Q 36.564 13.24 36.674 13.41 A 0.512 0.512 0 0 1 36.745 13.693 A 1.131 1.131 0 0 1 36.724 13.9 Q 37.004 13.28 37.184 12.69 Q 37.364 12.1 37.364 11.66 Q 37.364 11.32 37.234 11.11 Q 37.104 10.9 36.784 10.9 Q 36.504 10.9 36.144 11.25 Q 35.784 11.6 35.414 12.17 Q 35.044 12.74 34.734 13.4 Q 34.424 14.06 34.234 14.69 Q 34.044 15.32 34.044 15.78 Q 34.044 16.12 34.174 16.33 Q 34.304 16.54 34.604 16.54 Z M 71.064 5.98 Q 71.544 5.04 72.404 4.6 Q 73.264 4.16 74.244 4.16 Q 74.484 4.16 74.714 4.19 Q 74.944 4.22 75.184 4.26 Q 75.204 4.18 75.214 4.11 Q 75.224 4.04 75.224 3.96 Q 75.224 3.38 74.714 2.98 Q 74.204 2.58 73.444 2.58 Q 73.124 2.58 72.784 2.66 Q 72.444 2.74 72.104 2.92 Q 71.524 3.24 71.214 3.85 Q 70.904 4.46 70.904 5.12 Q 70.904 5.56 71.064 5.98 Z M 14.864 15.38 Q 16.064 15.38 17.344 15.1 Q 16.844 14.3 16.404 13.49 Q 15.964 12.68 15.444 11.92 Q 14.844 12.72 14.314 13.56 Q 13.784 14.4 13.204 15.22 Q 13.604 15.3 14.024 15.34 Q 14.444 15.38 14.864 15.38 Z M 88.664 8.62 L 88.424 9.08 Q 88.444 9.3 88.784 9.46 Q 89.124 9.62 89.864 9.62 Q 90.604 9.62 91.304 9.37 Q 92.004 9.12 92.624 8.68 Q 92.164 8.4 91.574 8.24 Q 90.984 8.08 90.264 8.08 Q 89.764 8.08 89.334 8.24 Q 88.904 8.4 88.664 8.62 Z M 98.164 14.2 Q 98.604 14.2 99.024 13.87 Q 99.444 13.54 99.784 13.03 Q 100.124 12.52 100.324 12 Q 100.404 11.78 100.404 11.5 Q 100.404 11.24 100.314 11.05 Q 100.224 10.86 100.004 10.86 A 1.147 1.147 0 0 0 99.224 11.31 Q 98.804 11.76 98.444 12.37 Q 98.084 12.98 97.904 13.48 Q 97.844 13.62 97.794 13.77 Q 97.744 13.92 97.704 14.08 Q 97.944 14.2 98.164 14.2 Z M 52.364 9.34 Q 52.084 9.34 51.894 9.15 Q 51.704 8.96 51.704 8.7 Q 51.704 8.36 51.934 8.12 Q 52.164 7.88 52.484 7.88 Q 52.764 7.88 52.964 8.08 Q 53.164 8.28 53.164 8.58 Q 53.164 8.9 52.924 9.12 Q 52.684 9.34 52.364 9.34 Z M 104.864 9.34 Q 104.584 9.34 104.394 9.15 Q 104.204 8.96 104.204 8.7 Q 104.204 8.36 104.434 8.12 Q 104.664 7.88 104.984 7.88 Q 105.264 7.88 105.464 8.08 Q 105.664 8.28 105.664 8.58 Q 105.664 8.9 105.424 9.12 Q 105.184 9.34 104.864 9.34 Z M 73.464 9.38 Q 73.704 9.38 73.854 9.32 Q 74.004 9.26 74.044 9.2 Q 74.044 9.18 74.054 9.18 Q 74.064 9.18 74.064 9.16 Q 74.064 9.1 73.924 9.04 Q 73.724 8.9 73.384 8.9 A 4.311 4.311 0 0 0 73.066 8.889 A 5.905 5.905 0 0 0 72.184 8.96 Q 72.344 9.06 72.524 9.14 Q 72.624 9.18 72.704 9.2 Q 72.784 9.22 72.844 9.26 Q 73.204 9.38 73.464 9.38 Z" />
    </g>
  </svg> -->
</svg>
